<svg width="365" height="297" viewBox="0 0 365 297" fill="none" xmlns="http://www.w3.org/2000/svg">
<rect width="365" height="297" fill="#273032"/>
<path d="M140.844 178.516H140.066L140.844 179.295M140.844 178.516H141.623V179.295H142.402L140.844 178.516Z" stroke="#273032" stroke-width="0.5"/>
<path d="M142.402 180.074V179.295V178.516" stroke="#273032" stroke-width="0.5"/>
<path fill-rule="evenodd" clip-rule="evenodd" d="M109.958 75.3771C105.29 77.0625 106.475 75.6866 106.455 103.67V133.395L103.731 134.111L102.174 134.469C99.8395 135.191 100.329 134.627 96.7263 135.964C92.1911 137.647 91.8395 138.108 90.9864 139.406C90.3085 140.437 88.4864 146.518 86.6083 153.683C83.9535 163.813 83.6523 165.447 84.2734 166.701C84.8462 167.858 89.6835 169.683 107.728 178.061C121.58 184.492 142.495 194.616 155.418 200.67C168.341 206.725 178.991 212 179.674 212C180.357 212 183.941 210.061 190.454 206.965C196.967 203.868 209.608 198.153 219.025 193.71C228.443 189.268 240.839 183.58 245.976 181.122C251.112 178.664 258.412 175.212 263.22 172.975C271.848 168.961 274 166.753 274 164.163C274 161.018 265.987 140.337 264.567 138.986C263.739 138.198 262.978 136.45 260.525 135.645L256.279 133.395V106.177C255.874 77.4551 255.755 79.528 252.44 77.8949C250.497 76.9379 248.462 76.3218 245.702 77.3016C243.661 78.0265 234.274 79.2406 221.447 82.3371C218.763 83.3932 211.332 84.6628 207.265 85.685C203.199 86.7071 197.633 88.2184 195.493 88.2191C193.352 88.2205 191.261 89.5321 187.759 89.8903L182.369 91.1491L174.284 89.8903C170.512 89.0064 161.996 87.1397 154.505 85.4049C147.014 83.6701 134.21 80.3974 126.505 78.6003C111.173 75.024 112.735 74.3736 109.958 75.3771ZM146.996 87.3947C164.937 91.5598 180.252 94.0417 181.172 94.2823C182.155 94.5395 184.524 95.1984 186.738 94.2823C188.814 93.4235 192.526 92.544 194.987 92.3269C198.79 91.9924 201.019 91.9287 201.019 92.9258C201.019 94.2072 197.512 95.8682 196.739 94.7164C195.921 93.4988 192.798 93.5417 191.29 95.0746C189.829 96.5601 183.733 99.3722 181.951 99.3722C181.411 99.3722 173.521 96.3065 164.434 93.5295C155.347 90.7526 147.745 88.6338 147.541 88.8208C146.989 89.3301 151.561 91.3908 158.991 93.9808L165.606 96.2872L166.039 124.472C166.277 139.974 166.397 152.761 166.305 152.89C166.214 153.018 158.838 150.795 149.917 147.95C140.996 145.105 128.793 141.244 122.8 139.371L109.957 135.275L109.957 108.553C109.845 93.4465 109.735 80.5672 109.958 80.0329C110.181 79.4985 112.112 78.3991 112.682 78.6003C113.25 78.8009 129.055 83.2296 146.996 87.3947ZM250.831 81.3881C250.831 82.176 250.695 82.8206 250.527 82.8206C248.587 82.8206 233.519 86.1742 226.274 88.2191C207.195 93.6033 206.188 93.7652 205.689 92.5676C205.052 91.0398 206.992 90.3321 212.305 89.0958C214.873 88.4977 221.177 86.9628 226.314 85.685C253.076 79.0265 250.831 79.4198 250.831 81.3881ZM250.831 110.755C250.831 124.149 250.871 135.35 250.92 135.645C250.97 135.941 248.606 137.089 245.667 138.198C238.746 140.807 208.946 150.15 207.544 150.15C206.647 150.15 206.468 145.754 206.468 123.812V97.474L217.558 93.9758C227.936 90.7024 245.127 86.6061 249.08 86.4643L250.831 86.4019V110.755ZM117.903 94.369L118.13 100.229L120.882 101.104C122.396 101.585 124.759 102.206 126.135 102.484L128.637 102.99L128.559 98.8142C128.42 91.2841 127.974 90.7819 119.849 88.9884L117.677 88.5085L117.903 94.369ZM125.329 92.2195C126.856 92.7366 127.08 93.3197 127.08 96.7699C127.08 101.098 126.956 101.18 122.306 99.8979L119.297 99.0677V94.8704V90.6723L121.438 91.1487C122.615 91.4108 124.366 91.8929 125.329 92.2195ZM130.524 92.7617C131.302 93.9192 134.085 94.2143 134.085 93.1392C134.085 92.5361 133.286 92.1321 132.093 92.1321C130.998 92.1321 130.292 92.4157 130.524 92.7617ZM120.854 95.3553C120.854 96.7341 121.116 97.8666 121.438 97.8723C121.759 97.8773 122.81 98.0764 123.773 98.3135C125.311 98.6931 125.524 98.4775 125.524 96.5386C125.524 95.0896 125.007 94.0768 124.019 93.5897C121.519 92.3584 120.854 92.7295 120.854 95.3553ZM130.194 95.6167C130.194 95.9577 130.93 97.098 131.83 98.1502C133.146 99.6909 133.369 100.651 132.972 103.082C131.621 111.353 131.584 112.367 132.615 112.953C133.185 113.277 133.35 113.801 132.983 114.119C132.616 114.435 132.159 114.292 131.968 113.799C131.407 112.353 130.194 112.773 130.194 114.413C130.194 115.5 129.846 115.8 128.954 115.485C128.272 115.244 126.871 114.852 125.841 114.614C124.538 114.313 123.967 113.677 123.967 112.528C123.967 111.618 124.365 110.752 124.851 110.603C125.476 110.411 125.504 109.921 124.942 108.932C124.506 108.162 123.699 106.646 123.148 105.562C121.895 103.096 120.854 103.029 120.854 105.413C120.854 106.415 120.153 107.926 119.297 108.772C118.116 109.939 117.974 110.449 118.713 110.88C120.277 111.794 120.854 111.568 120.854 110.039C120.854 109.251 121.204 108.606 121.632 108.606C122.063 108.606 122.411 110.491 122.411 112.827C122.411 116.109 122.699 117.151 123.71 117.507C124.426 117.76 125.257 117.598 125.559 117.149C125.876 116.678 126.809 116.537 127.767 116.817C128.733 117.098 130.45 116.831 131.875 116.177C133.222 115.558 134.796 115.053 135.372 115.053C136.018 115.053 136.42 114.228 136.42 112.904C136.42 111.527 136.816 110.755 137.524 110.755C138.131 110.755 139.181 110.56 139.859 110.32C140.779 109.996 141.09 110.337 141.09 111.669C141.09 112.851 141.615 113.579 142.646 113.828C144.091 114.175 144.203 113.849 144.203 109.297C144.203 106.6 143.853 104.194 143.425 103.951C142.971 103.692 142.646 104.42 142.646 105.699C142.646 106.904 142.296 107.89 141.868 107.89C141.44 107.89 141.09 107.245 141.09 106.457C141.09 105.67 140.74 105.025 140.312 105.025C139.883 105.025 139.533 105.992 139.533 107.174C139.533 108.356 139.183 109.323 138.755 109.323C138.327 109.323 137.977 107.677 137.977 105.665C137.977 102.743 138.206 102.088 139.119 102.41C140.44 102.877 140.687 102.578 141.395 99.6529C141.772 98.0986 141.699 97.8014 141.136 98.5785C140.47 99.4954 140.175 99.4158 139.122 98.0413C137.706 96.1912 136.42 95.9355 136.42 97.5041C136.42 98.095 136.77 98.5785 137.198 98.5785C137.626 98.5785 137.977 99.3843 137.977 100.369C137.977 101.354 137.626 102.16 137.198 102.16C136.77 102.16 136.42 103.127 136.42 104.309C136.42 105.491 136.07 106.457 135.642 106.457C135.214 106.457 134.863 104.762 134.863 102.69C134.863 99.6472 134.483 98.5441 132.886 96.9598C130.809 94.8983 130.194 94.5911 130.194 95.6167ZM145.76 101.605V107.655L150.418 108.847C157.353 110.621 157.728 110.538 157.156 107.353C156.89 105.876 156.669 103.281 156.665 101.586C156.657 98.7906 156.422 98.4152 154.126 97.5335C152.736 96.9984 150.284 96.3344 148.678 96.0573L145.76 95.5537V101.605ZM202.187 130.495L201.234 165.422L197.191 164.163C195.334 163.966 195.136 161.554 194.59 158.745C193.818 154.785 192.814 143.045 194.014 142.348C194.632 141.99 193.856 135.717 194.014 119.07C194.187 100.9 198.74 96.2858 199.463 96.5071C200.178 96.7263 202.033 105.907 202.187 130.495ZM152.09 98.6917L155.099 99.5219V103.763V108.004L152.57 107.535C147.175 106.536 147.316 106.682 147.316 102.112C147.316 97.4676 147.409 97.401 152.09 98.6917ZM175.799 100.369C181.086 102.521 184.571 101.32 188.566 99.5219C191.804 98.0657 194.014 100.164 191.29 101.879C186.819 104.694 184.528 104.041 185.046 121.139C185.309 129.807 185.747 138.027 186.019 139.406L186.514 141.913L187.083 138.331C187.396 136.362 187.682 129.392 187.72 122.842C187.758 116.293 188.299 109.199 188.566 107.967C189.901 101.824 190.901 108.187 190.901 130.052V154.525L186.037 156.293L181.951 158.124L175.724 156.106L169.498 154.089L169.294 126.334C169.064 94.9528 168.456 97.3802 175.799 100.369ZM148.873 102.518C148.873 103.897 149.136 105.029 149.457 105.035C149.777 105.04 150.829 105.239 151.792 105.476C153.364 105.864 153.543 105.652 153.543 103.395C153.543 101.763 153.111 100.728 152.311 100.446C149.65 99.5061 148.873 99.9745 148.873 102.518ZM130.194 102.118C130.194 102.928 130.544 103.592 130.972 103.592C131.4 103.592 131.75 103.128 131.75 102.56C131.75 101.992 131.4 101.329 130.972 101.085C130.544 100.842 130.194 101.307 130.194 102.118ZM117.741 105.025C117.741 106.207 118.091 107.174 118.519 107.174C118.947 107.174 119.297 106.207 119.297 105.025C119.297 103.843 118.947 102.876 118.519 102.876C118.091 102.876 117.741 103.843 117.741 105.025ZM126.504 106.089C125.896 106.725 125.824 107.26 126.31 107.536C126.733 107.778 127.08 107.633 127.08 107.216C127.08 106.799 127.802 106.457 128.683 106.457C129.564 106.457 130.069 106.135 129.804 105.741C129.131 104.739 127.645 104.895 126.504 106.089ZM135.573 108.553C136.507 109.096 136.486 109.364 135.435 110.332C133.733 111.898 133.307 111.767 133.307 109.681C133.307 107.774 133.809 107.524 135.573 108.553ZM127.469 109.323C127.734 109.717 128.105 110.039 128.294 110.039C128.483 110.039 128.637 109.717 128.637 109.323C128.637 108.929 128.266 108.606 127.813 108.606C127.36 108.606 127.205 108.929 127.469 109.323ZM147.01 111.172C146.28 112.925 146.438 113.098 147.705 111.932C149.029 110.714 149.197 110.039 148.178 110.039C147.796 110.039 147.27 110.549 147.01 111.172ZM127.859 111.83C127.319 112.429 127.234 112.904 127.668 112.904C128.096 112.904 128.882 112.42 129.415 111.83C129.955 111.23 130.04 110.755 129.606 110.755C129.178 110.755 128.392 111.239 127.859 111.83ZM151.643 112.569C150.812 113.147 149.527 113.62 148.79 113.62C148.046 113.62 146.986 114.579 146.413 115.769C145.303 118.078 143.654 118.586 142.928 116.843C142.122 114.911 141.09 115.715 141.09 118.276C141.09 119.655 140.719 120.783 140.266 120.783C139.813 120.783 139.655 121.102 139.918 121.492C140.196 121.905 141.086 121.607 142.056 120.776C143.942 119.159 144.666 119.017 145.406 120.12C145.69 120.543 145.187 121.61 144.287 122.491C143.047 123.707 142.53 125.423 142.145 129.601C141.867 132.63 141.341 135.108 140.975 135.108C140.61 135.108 140.312 135.753 140.312 136.541C140.312 137.329 140.662 137.973 141.09 137.973C141.518 137.973 141.868 137.363 141.868 136.617C141.868 135.146 144.388 133.83 144.837 135.067C145.332 136.433 146.538 135.859 146.538 134.257V132.689L148.134 134.266C149.84 135.951 149.569 137.458 147.681 136.791C146.849 136.497 146.538 136.917 146.538 138.331C146.538 139.81 146.833 140.172 147.769 139.841C148.446 139.601 149.497 139.406 150.104 139.406C150.711 139.406 151.208 138.761 151.208 137.973C151.208 137.019 151.727 136.541 152.764 136.541C153.621 136.541 154.321 136.99 154.321 137.539C154.321 138.581 156.57 139.724 157.299 139.053C157.531 138.84 157.305 138.284 156.798 137.818C156.292 137.352 155.878 136.208 155.878 135.275C155.878 133.981 155.552 133.674 154.505 133.98C153.619 134.239 152.759 133.833 152.083 132.836C151.129 131.431 151.265 131.105 153.575 129.249C154.972 128.127 155.903 127.014 155.644 126.775C155.385 126.537 154.607 126.864 153.913 127.502C151.992 129.27 151.208 128.904 151.208 126.239C151.208 124.165 151.517 123.76 153.348 123.432C154.526 123.222 155.605 123.346 155.748 123.707C156.334 125.191 157.434 124.217 157.434 122.215C157.434 119.847 156.601 119.504 154.824 121.139C154.183 121.729 153.172 122.04 152.578 121.83C151.985 121.62 150.861 122.097 150.082 122.889C148.612 124.384 146.638 124.196 147.983 122.689C148.39 122.231 148.845 121.055 148.993 120.074C149.155 119.002 149.861 118.186 150.762 118.027C151.586 117.883 152.873 117.073 153.622 116.23C154.871 114.822 155.028 114.798 155.514 115.948C156.342 117.906 157.434 117.421 157.434 115.095C157.434 112.584 156.422 111.795 155.092 113.27C153.712 114.8 152.574 114.585 153.154 112.904C153.737 111.213 153.626 111.188 151.643 112.569ZM118.665 115.098C118.852 115.614 119.465 116.179 120.027 116.351C120.611 116.53 120.903 116.262 120.708 115.725C120.521 115.207 119.907 114.643 119.346 114.471C118.763 114.292 118.471 114.561 118.665 115.098ZM148.873 116.485C148.873 116.879 148.719 117.202 148.53 117.202C148.341 117.202 147.97 116.879 147.705 116.485C147.441 116.091 147.596 115.769 148.049 115.769C148.502 115.769 148.873 116.091 148.873 116.485ZM137.977 117.202C137.977 117.595 138.327 117.918 138.755 117.918C139.183 117.918 139.533 117.595 139.533 117.202C139.533 116.808 139.183 116.485 138.755 116.485C138.327 116.485 137.977 116.808 137.977 117.202ZM135.268 117.894C135.012 118.275 133.766 118.396 132.498 118.163C130.213 117.742 130.194 117.767 130.194 121.009C130.194 122.808 130.544 124.479 130.972 124.722C131.4 124.966 131.75 124.581 131.75 123.867C131.75 123.153 132.801 121.656 134.085 120.541C135.369 119.426 136.42 118.218 136.42 117.857C136.42 117.002 135.855 117.02 135.268 117.894ZM125.524 118.967C125.524 119.15 126.224 119.645 127.08 120.067C128.323 120.678 128.637 120.611 128.637 119.734C128.637 119.112 127.961 118.634 127.08 118.634C126.224 118.634 125.524 118.784 125.524 118.967ZM118.682 125.909L118.908 131.753L123.175 133.085C125.521 133.818 127.839 134.277 128.325 134.105C128.877 133.911 129.113 132.364 128.954 129.974C128.814 127.874 128.685 125.311 128.668 124.28C128.64 122.612 128.134 122.274 124.11 121.236C121.621 120.592 119.331 120.067 119.02 120.067C118.71 120.067 118.558 122.696 118.682 125.909ZM134.572 121.881C133.882 123.535 133.943 123.653 135.246 123.193C135.93 122.951 136.622 123.297 136.929 124.035C137.608 125.662 135.051 127.548 133.634 126.466C132.176 125.352 131.63 126.81 132.918 128.377C134.456 130.248 134.356 131.278 132.464 133.019C130.506 134.82 131.143 135.836 133.171 134.147C134.85 132.748 136.068 133.414 134.668 134.966C133.853 135.87 133.971 135.954 135.453 135.522C136.755 135.141 137.198 135.297 137.198 136.135C137.198 136.752 137.549 137.257 137.977 137.257C139.371 137.257 138.798 134.937 136.809 132.538C134.835 130.157 134.255 127.946 135.603 127.946C136.01 127.946 136.71 128.509 137.16 129.199C137.777 130.145 137.929 129.31 137.782 125.804C137.63 122.175 137.31 121.107 136.324 120.934C135.628 120.812 134.84 121.238 134.572 121.881ZM124.527 122.969C126.66 123.653 126.922 124.09 127.387 127.726C127.668 129.927 127.75 131.866 127.569 132.033C127.15 132.417 122.188 131.575 121.103 130.935C120.654 130.67 120.038 128.599 119.735 126.334C119.122 121.743 119.619 121.394 124.527 122.969ZM121.266 126.638C121.841 129.077 122.796 130.064 124.598 130.084C125.302 130.091 125.543 129.263 125.376 127.408C125.164 125.052 124.863 124.694 122.92 124.489C120.786 124.265 120.725 124.343 121.266 126.638ZM139.533 125.396C139.533 125.964 139.883 126.628 140.312 126.871C140.74 127.115 141.09 126.65 141.09 125.839C141.09 125.028 140.74 124.364 140.312 124.364C139.883 124.364 139.533 124.828 139.533 125.396ZM147.655 125.779C149.277 126.347 149.651 126.951 149.651 129.002C149.651 131.543 148.242 132.323 146.08 130.979C144.992 130.302 144.187 127.386 144.728 126.086C145.227 124.889 145.139 124.899 147.655 125.779ZM155.878 130.052C155.878 130.817 156.228 131.642 156.656 131.885C157.097 132.136 157.434 131.534 157.434 130.495C157.434 129.487 157.084 128.662 156.656 128.662C156.228 128.662 155.878 129.287 155.878 130.052ZM143.425 137.615C143.425 138.6 143.775 139.406 144.203 139.406C144.631 139.406 144.981 138.6 144.981 137.615C144.981 136.63 144.631 135.825 144.203 135.825C143.775 135.825 143.425 136.63 143.425 137.615ZM124.815 143.749C132.268 146.137 145.896 150.461 155.099 153.357C164.303 156.253 173.902 159.295 176.43 160.116C182.096 161.958 183.195 161.969 186.91 160.224L189.862 158.839L192.765 162.806C194.362 164.988 196.504 168.351 196.349 168.492C195.458 169.312 179.218 175.297 178.059 175.297C176.659 175.297 158.613 168.926 152.083 165.688C149.748 164.972 145.046 162.386 141.943 160.89C138.84 159.394 135.453 158.124 135.453 158.124C135.368 158.124 123.715 153.256 103.731 144.24C96.3371 141.862 101.169 136.285 101.169 135.964C101.169 134.654 111.94 139.623 124.815 143.749ZM257.83 140.245C257.957 140.614 250.483 143.989 244.605 146.539C238.726 149.089 228.401 153.546 221.447 156.61C214.493 159.674 207.996 162.806 207.544 162.806C207.041 162.806 206.478 160.171 206.622 157.916L206.857 154.221L229.371 147.164C241.754 143.282 252.065 139.942 252.282 139.741C252.836 139.232 257.553 139.437 257.83 140.245ZM151.597 140.838C151.862 141.232 152.232 141.555 152.421 141.555C152.61 141.555 152.764 141.232 152.764 140.838C152.764 140.444 152.393 140.122 151.94 140.122C151.487 140.122 151.332 140.444 151.597 140.838ZM156.656 142.271C156.656 142.665 157.006 142.987 157.434 142.987C157.862 142.987 158.213 142.665 158.213 142.271C158.213 141.877 157.862 141.555 157.434 141.555C157.006 141.555 156.656 141.877 156.656 142.271ZM97.5111 142.344C95.9481 147.016 93.3346 149.086 92.1718 148.424C90.9561 146.651 91.2816 143.123 92.839 140.008C93.5893 138.778 97.5111 140.789 97.5111 142.344ZM265.619 145.834C266.4 148.701 266.709 149.665 263.853 150.944C262.36 151.612 252.952 156.012 244.605 159.769C231.769 165.546 228.246 167.524 230.879 165.422C232.592 164.056 235.377 161.651 234.922 161.646C234.023 161.634 228.317 165.571 213.362 172.975C203.362 177.927 183.868 185.577 180.388 186.361C178.092 186.877 176.524 185.439 166.385 180.368C159.437 176.892 159.378 176.84 159.141 173.893C159.009 172.259 159.166 170.922 159.49 170.922C159.813 170.922 163.194 172.552 167.002 174.545C174.693 178.569 178.703 178.189 183.507 176.729C185.114 176.241 192.517 173.167 199.852 169.925C231.057 156.13 260.763 141.934 262.116 141.913C262.643 141.904 265.358 144.88 265.619 145.834ZM120.465 154.167C129.227 158.145 139.422 163.251 143.566 165.083C147.711 166.916 153.903 170.064 154.071 170.458C154.729 171.998 152.192 181.787 151.376 181.787C150.912 181.787 144.953 178.546 139.578 175.608C127.967 169.264 118.979 165.31 107.728 161.599L99.4504 158.464L98.4271 157.961C96.5169 157.021 95.494 154.9 95.9481 152.82V152.82C96.1971 148.713 98.1336 144.641 99.8397 144.641C100.339 144.641 111.703 150.189 120.465 154.167ZM93.6132 150.943C93.6132 151.762 91.5025 151.779 90.9561 150.966C90.7288 150.627 90.742 150.166 90.9864 149.941C91.5935 149.382 93.6132 150.152 93.6132 150.943ZM92.4131 153.683C92.9914 154.544 92.0076 162.326 91.3195 162.326C91.0324 162.326 90.1568 161.895 89.3738 161.368C88.081 160.499 88.0382 160.068 88.913 156.712C89.8112 153.269 91.2806 151.996 92.4131 153.683ZM267.954 156.293C268.83 158.116 269.482 159.756 269.482 160.224C269.482 160.693 266.718 162.099 264.257 163.02C254.355 166.721 238.588 174.005 220.869 183.065C195.696 195.936 181.543 202.443 178.777 202.416C177.526 202.404 172.65 200.524 167.941 198.237C160.034 194.397 157.27 192.791 157.045 190.696C156.91 189.449 156.641 188.082 156.899 188.082C157.47 182.836 165.699 192.269 169.64 194.568C171.655 195.745 174.187 196.707 175.265 196.707C177.1 196.707 177.142 196.63 175.921 195.506C175.202 194.846 171.187 192.496 166.997 190.284C159.403 186.275 156.691 185.951 157.47 182.836C157.338 181.178 157.97 179.594 158.212 179.594C158.454 179.594 163.871 182.199 168.87 184.603C176.037 188.049 178.473 188.896 180.388 188.61C181.724 188.41 188.555 185.799 195.567 182.807C208.209 177.413 211.978 175.269 211.978 176.607C211.978 177.611 208.134 177.658 222.88 169.925C234.11 164.035 245.888 160.992 262.116 154.047C265.384 152.649 266.181 152.605 267.954 156.293ZM107.369 163.133C115.454 166.106 132.775 174.114 141.886 179.092C145.918 181.295 153.293 184.603 153.577 184.603C154.389 184.603 152.798 189.844 151.376 188.082C151.04 188.39 145.669 185.637 140.452 183.457C128.056 178.278 123.804 176.614 125.913 178.162C126.769 178.791 128.365 180.056 131.361 181.447C139.315 185.138 150.99 190.955 151.376 191.858C151.56 192.288 151.376 193.117 150.729 193.889C150.161 194.734 149.019 194.151 127.859 183.827C122.08 181.008 113.412 176.936 108.596 174.779C101.014 171.382 95.9481 169.53 95.9481 168.024L95.1698 165.627L106.261 169.589C114.212 172.329 114.238 171.972 114.238 171.357C114.238 171.089 111.728 169.96 107.234 168.024C100.031 164.921 95.9481 163.19 95.9481 161.599C95.9481 159.261 97.7828 159.609 107.369 163.133ZM90.8386 164.457C91.9367 164.842 92.8349 165.648 92.8349 166.248C92.8349 167.629 91.8068 167.628 88.9045 166.247C84.911 164.347 86.4505 162.922 90.8386 164.457ZM269.482 165.449C268.856 165.984 261.863 169.486 253.944 173.23C246.025 176.974 226.103 186.417 209.674 194.216L179.804 208.393L169.008 203.466C163.071 200.756 156.656 197.646 156.656 197.143C156.656 195.705 159.599 196.531 163.342 198.901C169.767 202.969 176.653 205.521 180.069 205.099C183.281 204.702 195.584 199.181 211.526 190.983C230.838 181.051 246.896 173.361 257.447 168.993C268.368 164.47 271.816 163.455 269.482 165.449Z" fill="#EBEBEB"/>
<path d="M162.06 185.377L162.142 185.172L180.831 195.295L179.273 198.41L160.995 189.271C160.629 189.141 160.466 189.066 160.585 189.066L162.06 185.377L160.585 184.394L159.806 186.73H160.585V187.508L160.074 188.676H159.523L159.806 186.73L160.585 184.394L162.06 185.377Z" fill="#CFCFCF"/>
<path d="M160.585 189.066L162.142 185.172L180.831 195.295L179.273 198.41L160.585 189.066ZM160.585 189.066C159.962 189.066 167.074 191.142 170.708 192.18L166.814 189.844L162.921 187.508L163.7 189.066L164.478 187.508L163.7 186.73M162.921 186.73L162.272 188.676M179.273 196.853L164.478 186.73L162.142 185.951V189.066L162.272 188.676M179.273 196.853L166.036 190.623L162.272 188.676M179.273 196.853L160.585 184.394L159.806 186.73M159.806 186.73H160.585V187.508L160.074 188.676H159.523L159.806 186.73Z" stroke="#273032"/>
<path d="M211.978 179.721L210.421 177.385L232.224 166.484L233.003 168.041L218.986 175.828C218.986 176.128 218.504 176.32 217.889 176.438L211.978 179.721Z" fill="#CFCFCF"/>
<path d="M231.445 168.041L227.552 169.599L224.437 171.156L222.88 171.935L222.101 172.713H221.323L218.986 173.492L218.208 175.049C218.208 175.049 218.052 175.049 217.429 175.049C216.806 175.049 216.131 175.568 215.872 175.828H215.093L214.314 176.607H213.536C213.795 176.866 214.159 177.385 213.536 177.385C212.913 177.385 212.757 177.905 212.757 178.164H211.978L211.2 177.385H215.093L215.872 176.607C216.91 176.607 218.986 176.451 218.986 175.828M218.986 175.828L233.003 168.041L232.224 166.484L210.421 177.385L211.978 179.721L218.986 175.828ZM232.224 167.262L231.445 168.82" stroke="#273032" stroke-width="0.5"/>
<path d="M211.2 177.385C211.2 176.762 220.025 172.454 224.437 170.377L226.773 171.935L213.536 178.943H211.978L211.2 178.164L214.314 176.607L217.429 175.828V175.049H218.208L218.986 174.271H220.544C220.284 174.271 219.921 174.115 220.544 173.492C221.167 172.869 221.842 172.713 222.101 172.713" stroke="#273032"/>
<path d="M231.446 167.262L228.331 168.82L229.888 169.599L233.003 168.041L231.446 167.262Z" fill="#CFCFCF" stroke="#273032"/>
<path d="M150.459 189.972C150.745 189.82 150.996 189.497 151.158 189.218C150.437 188.652 149.683 187.942 149.683 187.508C149.683 186.73 150.462 187.508 151.241 188.287C151.864 188.91 151.5 189.066 151.241 189.066C151.217 189.114 151.189 189.165 151.158 189.218C151.473 189.466 151.782 189.686 152.019 189.844L151.241 190.623L150.459 189.972Z" fill="#CFCFCF"/>
<path d="M128.659 175.828L152.798 186.73L152.019 192.18L127.101 179.721L127.88 175.828L131.773 181.279L134.888 180.5L135.667 183.615H138.782L140.339 184.394H141.118L141.896 185.172L142.675 185.951C142.935 185.951 143.609 186.107 144.232 186.73C144.855 187.353 145.53 187.508 145.79 187.508L147.347 188.287C147.866 188.547 149.06 189.221 149.683 189.844C150.306 190.467 150.981 189.585 151.241 189.066C151.5 189.066 151.864 188.91 151.241 188.287C150.462 187.508 149.683 186.73 149.683 187.508C149.683 188.131 151.241 189.325 152.019 189.844L151.241 190.623L146.568 186.73" stroke="#273032"/>
<path d="M145.011 185.951H144.544L146.716 186.727C146.202 186.325 145.907 186.068 145.79 185.951L145.011 183.615L147.347 185.951L148.126 186.73L148.905 185.951L149.628 188.845C148.286 187.917 147.34 187.215 146.716 186.727L144.544 185.951H144.232L143.713 185.654L139.214 184.047L141.896 186.73L138.245 183.937L140.339 186.73L134.888 182.058C134.809 181.819 134.719 181.507 134.652 181.19L133.75 180.5H132.357L134.109 181.279L133.75 182.058V182.836L132.552 181.279C132.385 181.045 132.195 180.782 131.987 180.5H130.578H127.101L127.895 178.517L128.423 177.195C127.933 176.366 127.689 175.828 127.88 175.828C128.119 175.828 128.669 176.361 129.331 177.121L133.75 180.5L134.652 181.19C134.498 180.471 134.456 179.721 134.888 179.721C135.562 179.721 137.982 183.216 138.121 183.657L139.214 184.047L143.713 185.654L138.782 182.836L141.896 183.615L145.011 185.951Z" fill="#CFCFCF"/>
<path d="M148.126 186.73L148.905 185.951L149.628 188.845M149.683 189.066L149.628 188.845M149.628 188.845C147.18 187.153 146.049 186.211 145.79 185.951L145.011 183.615L147.347 185.951L148.905 187.508L138.003 183.615M138.003 183.615L140.339 186.73L134.888 182.058C134.629 181.279 134.265 179.721 134.888 179.721C135.667 179.721 138.782 184.394 138.003 183.615ZM138.782 181.279L141.118 182.058L138.003 182.836L141.896 186.73L133.75 180.5M133.75 180.5L128.659 176.607L127.101 180.5H133.75ZM133.331 184.394C131.254 181.538 127.257 175.828 127.88 175.828C128.503 175.828 131.254 179.462 132.552 181.279L133.75 182.836V182.058L134.109 181.279L127.101 178.164M145.011 185.951H144.232L138.782 182.836L141.896 183.615L145.011 185.951Z" stroke="#273032"/>
<path d="M115.421 172.713L98.2898 167.262V165.705L99.0685 167.262L104.519 168.82L102.962 167.262H102.183L100.57 166.187C99.9462 165.95 99.4194 165.705 99.8472 165.705L99.0685 164.148H99.8472L102.183 164.926L104.519 165.705L106.466 166.873L109.97 168.041L111.132 169.203L113.159 169.673L113.085 169.599L116.2 170.377L116.978 172.713H115.421Z" fill="#CFCFCF"/>
<path d="M98.2898 162.59V165.705M116.2 170.377L116.978 172.713H115.421L98.2898 167.262V165.705M116.2 170.377L113.085 169.599L114.642 171.156L115.421 171.935M116.2 170.377L111.132 169.203M115.421 171.935C114.123 171.415 111.839 170.533 113.085 171.156C114.331 171.779 115.161 171.935 115.421 171.935ZM109.97 168.82L108.413 168.041L104.519 165.705L102.183 164.926L99.8472 164.148H99.0685L99.8472 165.705M99.8472 165.705L102.183 167.262H104.519L105.298 168.041L106.855 168.82L108.413 169.599H109.191L110.749 170.377H111.527V169.599L111.132 169.203M99.8472 165.705C99.2242 165.705 100.626 166.224 101.405 166.484L102.962 165.705L109.97 168.041L111.132 169.203M100.626 164.926L104.519 168.82L99.0685 167.262L98.2898 165.705" stroke="#273032"/>
<path d="M125.544 178.943L126.79 178.32L126.323 178.164L125.544 177.385V176.607H124.765V178.164L125.544 178.943Z" fill="#CFCFCF"/>
<path d="M96.7324 161.812L95.9537 165.705L96.7324 166.484V164.148L98.2898 163.369L128.659 177.385L127.101 178.164L125.544 178.943L124.765 178.164V176.607H125.544V177.385L126.323 178.164L152.019 186.73L151.241 188.287" stroke="#273032"/>
<path d="M151.241 184.394H152.019L153.577 185.172V185.951H152.798V185.172H152.019V185.951L151.241 184.394Z" fill="#CFCFCF"/>
<path d="M150.462 184.394H151.241M151.241 184.394H152.019M151.241 184.394L152.019 185.951V185.172M152.019 184.394L153.577 185.172V185.951H152.798V185.172H152.019M152.019 184.394V185.172" stroke="#273032" stroke-width="0.2"/>
<path d="M168.372 193.738L173.044 196.074L167.593 192.959" stroke="#273032"/>
<path d="M159.027 184.394L158.249 189.066V187.508V186.73V185.951V185.172V184.394L159.027 183.615V182.836V182.057" stroke="#273032"/>
<path d="M213.262 178.517L214.82 176.959L216.377 176.18L224.943 172.287L227.279 170.73L228.836 169.951L223.385 171.508L221.049 173.066" stroke="#273032"/>
<path d="M175.107 192.533C175.107 193.052 175.262 194.09 175.885 194.09C176.664 194.09 176.664 194.869 177.443 194.869C178.066 194.869 178.221 194.869 178.221 194.869L179.779 195.648H180.557L181.336 194.869" stroke="#273032"/>
<path d="M119.383 66.5807C119.343 66.5807 119.297 66.5807 119.243 66.5807C119.203 66.5807 119.157 66.5741 119.103 66.5607C117.61 66.4541 116.443 66.3741 115.603 66.3207C114.763 66.2674 114.25 66.2407 114.063 66.2407C113.863 66.2407 113.67 66.2474 113.483 66.2607C113.297 66.2607 113.123 66.2674 112.963 66.2807C112.79 66.2941 112.443 66.3207 111.923 66.3607C111.403 66.3874 110.697 66.4407 109.803 66.5207L110.103 65.9007C110.343 65.9141 110.623 65.8941 110.943 65.8407C111.277 65.7874 111.577 65.6941 111.843 65.5607C112.123 65.4274 112.303 65.2474 112.383 65.0207C112.463 64.7541 112.537 64.2741 112.603 63.5807C112.683 62.8874 112.763 61.9741 112.843 60.8407L113.103 57.1207C113.13 56.8274 113.143 56.5541 113.143 56.3007C113.143 56.0341 113.143 55.7941 113.143 55.5807C113.143 54.5141 113.07 53.9074 112.923 53.7607C112.723 53.5207 112.343 53.4007 111.783 53.4007C111.69 53.4007 111.597 53.4074 111.503 53.4207C111.41 53.4207 111.31 53.4274 111.203 53.4407L111.503 52.8807C111.85 52.9341 112.25 52.9807 112.703 53.0207C113.157 53.0607 113.67 53.0741 114.243 53.0607L119.923 53.0007C120.097 53.0141 120.183 53.1207 120.183 53.3207C120.183 53.3874 120.157 53.5207 120.103 53.7207C120.063 53.9074 119.977 54.1941 119.843 54.5807C119.763 54.8607 119.69 55.1274 119.623 55.3807C119.57 55.6207 119.53 55.8141 119.503 55.9607L118.943 55.8207C119.223 55.1807 119.363 54.7807 119.363 54.6207C119.363 54.3941 119.257 54.2341 119.043 54.1407C118.83 54.0341 118.563 53.9674 118.243 53.9407C117.923 53.9141 117.603 53.9007 117.283 53.9007C116.79 53.9007 116.377 53.9074 116.043 53.9207C115.71 53.9207 115.437 53.9407 115.223 53.9807C115.103 54.3541 114.99 54.9674 114.883 55.8207C114.79 56.6741 114.697 57.7341 114.603 59.0007L118.763 58.9607C118.857 58.9607 118.93 58.9874 118.983 59.0407C119.037 59.0941 119.05 59.1741 119.023 59.2807C119.01 59.3341 118.983 59.4341 118.943 59.5807C118.903 59.7274 118.87 59.8541 118.843 59.9607C118.817 60.1207 118.79 60.2874 118.763 60.4607C118.737 60.6341 118.723 60.8207 118.723 61.0207L118.243 61.1407L118.163 61.0407C118.217 60.8674 118.243 60.6941 118.243 60.5207C118.243 60.2807 118.163 60.1074 118.003 60.0007C117.843 59.8941 117.577 59.8341 117.203 59.8207C116.443 59.7807 115.803 59.7607 115.283 59.7607C115.15 59.7607 115.017 59.7607 114.883 59.7607C114.763 59.7607 114.65 59.7674 114.543 59.7807C114.517 60.2074 114.49 60.6874 114.463 61.2207C114.437 61.7407 114.41 62.2607 114.383 62.7807C114.37 63.2874 114.363 63.7341 114.363 64.1207C114.363 64.3341 114.363 64.5207 114.363 64.6807C114.377 64.8274 114.39 64.9407 114.403 65.0207C114.417 65.2474 114.517 65.3941 114.703 65.4607C114.783 65.4874 114.93 65.5207 115.143 65.5607C115.37 65.6007 115.63 65.6407 115.923 65.6807C116.203 65.7207 116.523 65.7407 116.883 65.7407C118.203 65.7407 119.09 65.5874 119.543 65.2807C119.65 65.2007 119.763 65.0941 119.883 64.9607C120.017 64.8141 120.157 64.6341 120.303 64.4207C120.45 64.1941 120.563 63.9874 120.643 63.8007C120.737 63.6141 120.777 63.4741 120.763 63.3807L121.223 63.5607C121.063 63.8541 120.93 64.1674 120.823 64.5007C120.717 64.8207 120.623 65.1607 120.543 65.5207C120.503 65.6941 120.45 65.8541 120.383 66.0007C120.33 66.1474 120.263 66.2541 120.183 66.3207C120.01 66.4941 119.743 66.5807 119.383 66.5807ZM130.385 66.6207C129.398 66.6207 128.652 66.4874 128.145 66.2207C128.038 66.1674 127.985 66.0607 127.985 65.9007C128.052 65.3407 128.105 64.8407 128.145 64.4007C128.198 63.9474 128.232 63.5474 128.245 63.2007L128.825 62.9807C128.758 63.9141 128.738 64.4607 128.765 64.6207C128.818 64.8741 128.972 65.1007 129.225 65.3007C129.478 65.4874 129.785 65.6341 130.145 65.7407C130.505 65.8474 130.845 65.9007 131.165 65.9007C131.952 65.9007 132.585 65.6674 133.065 65.2007C133.545 64.7207 133.785 64.0607 133.785 63.2207C133.785 62.5407 133.592 61.9674 133.205 61.5007C132.832 61.0341 132.372 60.6274 131.825 60.2807C131.212 59.8941 130.678 59.5541 130.225 59.2607C129.785 58.9674 129.445 58.6341 129.205 58.2607C128.965 57.8874 128.845 57.3874 128.845 56.7607C128.845 56.0674 129.052 55.4341 129.465 54.8607C129.878 54.2741 130.425 53.8074 131.105 53.4607C131.798 53.1007 132.552 52.9207 133.365 52.9207H133.385C133.718 52.9207 134.065 52.9541 134.425 53.0207C134.785 53.0874 135.092 53.1807 135.345 53.3007C135.612 53.4207 135.745 53.5741 135.745 53.7607C135.558 54.1741 135.412 54.5941 135.305 55.0207C135.212 55.4474 135.152 55.8741 135.125 56.3007L134.545 56.0607C134.678 55.8341 134.745 55.4874 134.745 55.0207C134.745 54.5141 134.545 54.1541 134.145 53.9407C133.745 53.7274 133.305 53.6207 132.825 53.6207C132.092 53.6207 131.498 53.8541 131.045 54.3207C130.605 54.7741 130.385 55.3807 130.385 56.1407C130.385 56.6074 130.498 57.0074 130.725 57.3407C130.952 57.6607 131.232 57.9407 131.565 58.1807C131.912 58.4074 132.245 58.6207 132.565 58.8207C133.272 59.2607 133.838 59.6674 134.265 60.0407C134.705 60.4007 135.018 60.7741 135.205 61.1607C135.405 61.5341 135.505 61.9741 135.505 62.4807C135.505 63.3741 135.278 64.1274 134.825 64.7407C134.385 65.3541 133.778 65.8207 133.005 66.1407C132.245 66.4607 131.372 66.6207 130.385 66.6207ZM148.825 66.5207C148.705 66.4674 148.345 66.4141 147.745 66.3607C147.158 66.2941 146.492 66.2607 145.745 66.2607C145.172 66.2607 144.598 66.2874 144.025 66.3407C143.465 66.3941 142.898 66.4474 142.325 66.5007L142.625 65.9007C142.772 65.9407 142.938 65.9607 143.125 65.9607C143.472 65.9607 143.825 65.8874 144.185 65.7407C144.545 65.5941 144.772 65.3674 144.865 65.0607C145.065 64.3941 145.245 62.9341 145.405 60.6807C145.445 60.1341 145.485 59.5341 145.525 58.8807C145.565 58.2141 145.592 57.5607 145.605 56.9207C145.632 56.2807 145.645 55.7341 145.645 55.2807C145.645 55.1474 145.638 55.0274 145.625 54.9207C145.625 54.8007 145.625 54.7007 145.625 54.6207C145.612 54.1941 145.538 53.8941 145.405 53.7207C145.272 53.5341 145.025 53.4407 144.665 53.4407C144.545 53.4407 144.405 53.4541 144.245 53.4807C144.085 53.4941 143.912 53.5141 143.725 53.5407L144.065 52.9007C144.198 52.9141 144.412 52.9407 144.705 52.9807C144.998 53.0074 145.325 53.0341 145.685 53.0607C146.058 53.0741 146.418 53.0807 146.765 53.0807C147.232 53.0807 147.745 53.0541 148.305 53.0007C148.865 52.9474 149.372 52.9007 149.825 52.8607L149.345 53.4407C149.252 53.4274 149.165 53.4207 149.085 53.4207C149.018 53.4074 148.952 53.4007 148.885 53.4007C148.445 53.4007 148.132 53.5274 147.945 53.7807C147.772 54.0341 147.638 54.3941 147.545 54.8607C147.452 55.4074 147.358 56.1674 147.265 57.1407C147.185 58.1007 147.105 59.2874 147.025 60.7007C147.012 61.2341 146.992 61.8074 146.965 62.4207C146.938 63.0207 146.925 63.5674 146.925 64.0607C146.925 64.2741 146.925 64.4674 146.925 64.6407C146.938 64.8007 146.952 64.9407 146.965 65.0607C146.992 65.3541 147.185 65.5741 147.545 65.7207C147.905 65.8541 148.272 65.9207 148.645 65.9207C148.845 65.9207 149.025 65.9007 149.185 65.8607L148.825 66.5207ZM156.12 61.3207C155.867 61.2541 155.547 61.2074 155.16 61.1807C154.774 61.1407 154.307 61.1141 153.76 61.1007C152.987 61.1007 152.04 61.1607 150.92 61.2807C150.907 61.2807 150.9 61.2674 150.9 61.2407C150.9 61.1074 150.967 60.9007 151.1 60.6207C151.247 60.3141 151.367 60.1741 151.46 60.2007C151.967 60.3474 152.72 60.4207 153.72 60.4207C153.947 60.4207 154.194 60.4141 154.46 60.4007C154.74 60.3874 155.047 60.3674 155.38 60.3407C155.767 60.3141 156.067 60.2941 156.28 60.2807C156.494 60.2541 156.62 60.2407 156.66 60.2407C156.674 60.2407 156.68 60.2541 156.68 60.2807C156.68 60.3874 156.614 60.5941 156.48 60.9007C156.32 61.1941 156.2 61.3341 156.12 61.3207Z" fill="#FFF9F9"/>
<path d="M170.077 66.6207C168.277 66.6207 166.757 66.2407 165.517 65.4807C164.81 65.0541 164.257 64.5341 163.857 63.9207C163.457 63.3074 163.17 62.6474 162.997 61.9407C162.837 61.2341 162.757 60.5274 162.757 59.8207C162.757 58.5541 162.983 57.5274 163.437 56.7407C163.903 55.9407 164.51 55.2474 165.257 54.6607C166.057 54.0207 166.95 53.5674 167.937 53.3007C168.937 53.0341 169.99 52.9007 171.097 52.9007C173.043 52.9007 174.837 53.2207 176.477 53.8607L176.337 54.1407C176.163 54.0474 175.943 54.4141 175.677 55.2407C175.477 55.9074 175.357 56.4674 175.317 56.9207C175.317 56.9741 175.31 57.0541 175.297 57.1607L174.857 57.0607C174.883 56.9541 174.897 56.8607 174.897 56.7807C174.91 56.7007 174.923 56.6207 174.937 56.5407C174.963 55.9941 174.87 55.5674 174.657 55.2607C174.457 54.9541 174.023 54.6607 173.357 54.3807C172.557 54.0341 171.557 53.8607 170.357 53.8607C168.703 53.8607 167.39 54.2674 166.417 55.0807C165.777 55.6141 165.33 56.2807 165.077 57.0807C164.837 57.8674 164.717 58.6941 164.717 59.5607C164.717 61.2141 165.143 62.5874 165.997 63.6807C166.983 64.9474 168.343 65.5807 170.077 65.5807C170.863 65.5807 171.703 65.4807 172.597 65.2807C173.49 65.0674 174.43 64.7407 175.417 64.3007L175.377 64.8207C174.817 65.1407 174.37 65.3941 174.037 65.5807C173.703 65.7674 173.477 65.8874 173.357 65.9407C172.263 66.3941 171.17 66.6207 170.077 66.6207ZM188.953 66.5207C188.593 66.4541 188.14 66.4007 187.593 66.3607C187.06 66.3074 186.48 66.2807 185.853 66.2807C185.28 66.2807 184.693 66.3007 184.093 66.3407C183.507 66.3674 182.953 66.4207 182.433 66.5007L182.733 65.9007C182.8 65.9141 182.867 65.9274 182.933 65.9407C183 65.9407 183.067 65.9407 183.133 65.9407C183.507 65.9407 183.887 65.8607 184.273 65.7007C184.673 65.5407 184.92 65.3141 185.013 65.0207C185.2 64.4074 185.373 62.9941 185.533 60.7807C185.693 58.3541 185.773 56.5474 185.773 55.3607C185.773 54.6274 185.727 54.1207 185.633 53.8407C185.553 53.5607 185.273 53.4207 184.793 53.4207C184.66 53.4207 184.513 53.4274 184.353 53.4407C184.207 53.4541 184.04 53.4741 183.853 53.5007L184.173 52.9007C184.307 52.9141 184.54 52.9407 184.873 52.9807C185.207 53.0074 185.553 53.0341 185.913 53.0607C186.273 53.0741 186.553 53.0807 186.753 53.0807C187.273 53.0807 187.813 53.0541 188.373 53.0007C188.933 52.9474 189.453 52.9007 189.933 52.8607L189.473 53.4007C189.407 53.3874 189.34 53.3807 189.273 53.3807C189.207 53.3674 189.14 53.3607 189.073 53.3607C188.62 53.3607 188.28 53.5074 188.053 53.8007C187.827 54.0807 187.667 54.4741 187.573 54.9807C187.48 55.4874 187.413 56.0807 187.373 56.7607C187.347 57.4274 187.307 58.1541 187.253 58.9407C188.733 59.0207 190.113 59.0607 191.393 59.0607C192.14 59.0607 192.873 59.0541 193.593 59.0407C194.313 59.0141 195.04 58.9874 195.773 58.9607C195.84 58.1341 195.88 57.3941 195.893 56.7407C195.907 56.0874 195.913 55.5341 195.913 55.0807C195.913 54.4541 195.86 54.0141 195.753 53.7607C195.66 53.5074 195.34 53.3807 194.793 53.3807C194.553 53.3807 194.273 53.4207 193.953 53.5007L194.293 52.9007C194.427 52.9141 194.667 52.9407 195.013 52.9807C195.36 53.0074 195.72 53.0341 196.093 53.0607C196.48 53.0741 196.78 53.0807 196.993 53.0807C197.247 53.0807 197.553 53.0674 197.913 53.0407C198.273 53.0141 198.64 52.9874 199.013 52.9607C199.4 52.9207 199.747 52.8874 200.053 52.8607L199.593 53.4007C199.54 53.3874 199.48 53.3807 199.413 53.3807C199.36 53.3807 199.3 53.3807 199.233 53.3807C198.753 53.3807 198.413 53.4807 198.213 53.6807C198.013 53.8807 197.887 54.1941 197.833 54.6207C197.78 55.0341 197.713 55.5607 197.633 56.2007C197.553 56.8941 197.48 57.6274 197.413 58.4007C197.347 59.1741 197.287 59.9741 197.233 60.8007C197.22 61.4941 197.2 62.1141 197.173 62.6607C197.16 63.1941 197.153 63.6474 197.153 64.0207C197.153 64.5674 197.213 64.9807 197.333 65.2607C197.453 65.5274 197.68 65.7007 198.013 65.7807C198.347 65.8607 198.82 65.8874 199.433 65.8607L199.033 66.5207C198.767 66.4541 198.36 66.4007 197.813 66.3607C197.267 66.3074 196.66 66.2807 195.993 66.2807C195.42 66.2807 194.833 66.3007 194.233 66.3407C193.633 66.3807 193.073 66.4341 192.553 66.5007L192.853 65.9007C193.04 65.9407 193.233 65.9607 193.433 65.9607C193.793 65.9607 194.133 65.8874 194.453 65.7407C194.787 65.5941 195 65.3674 195.093 65.0607C195.187 64.7541 195.267 64.3607 195.333 63.8807C195.4 63.3874 195.453 62.8807 195.493 62.3607C195.547 61.8274 195.587 61.3474 195.613 60.9207C195.653 60.4807 195.68 60.1541 195.693 59.9407C194 59.9007 192.473 59.8807 191.113 59.8807C189.607 59.8807 188.3 59.9007 187.193 59.9407C187.18 60.1674 187.16 60.5407 187.133 61.0607C187.12 61.5674 187.1 62.1141 187.073 62.7007C187.06 63.2741 187.053 63.7874 187.053 64.2407C187.053 64.4141 187.053 64.5741 187.053 64.7207C187.053 64.8541 187.06 64.9674 187.073 65.0607C187.1 65.3541 187.293 65.5674 187.653 65.7007C188.027 65.8341 188.407 65.9007 188.793 65.9007C188.887 65.9007 188.973 65.9007 189.053 65.9007C189.147 65.8874 189.233 65.8741 189.313 65.8607L188.953 66.5207ZM215.331 66.5807C215.291 66.5807 215.245 66.5807 215.191 66.5807C215.151 66.5807 215.105 66.5741 215.051 66.5607C213.558 66.4541 212.391 66.3741 211.551 66.3207C210.711 66.2674 210.198 66.2407 210.011 66.2407C209.811 66.2407 209.618 66.2474 209.431 66.2607C209.245 66.2607 209.071 66.2674 208.911 66.2807C208.738 66.2941 208.391 66.3207 207.871 66.3607C207.351 66.3874 206.645 66.4407 205.751 66.5207L206.051 65.9007C206.291 65.9141 206.571 65.8941 206.891 65.8407C207.225 65.7874 207.525 65.6941 207.791 65.5607C208.071 65.4274 208.251 65.2474 208.331 65.0207C208.411 64.7541 208.485 64.2741 208.551 63.5807C208.631 62.8874 208.711 61.9741 208.791 60.8407L209.051 57.1207C209.078 56.8274 209.091 56.5541 209.091 56.3007C209.091 56.0341 209.091 55.7941 209.091 55.5807C209.091 54.5141 209.018 53.9074 208.871 53.7607C208.671 53.5207 208.291 53.4007 207.731 53.4007C207.638 53.4007 207.545 53.4074 207.451 53.4207C207.358 53.4207 207.258 53.4274 207.151 53.4407L207.451 52.8807C207.798 52.9341 208.198 52.9807 208.651 53.0207C209.105 53.0607 209.618 53.0741 210.191 53.0607L215.871 53.0007C216.045 53.0141 216.131 53.1207 216.131 53.3207C216.131 53.3874 216.105 53.5207 216.051 53.7207C216.011 53.9074 215.925 54.1941 215.791 54.5807C215.711 54.8607 215.638 55.1274 215.571 55.3807C215.518 55.6207 215.478 55.8141 215.451 55.9607L214.891 55.8207C215.171 55.1807 215.311 54.7807 215.311 54.6207C215.311 54.3941 215.205 54.2341 214.991 54.1407C214.778 54.0341 214.511 53.9674 214.191 53.9407C213.871 53.9141 213.551 53.9007 213.231 53.9007C212.738 53.9007 212.325 53.9074 211.991 53.9207C211.658 53.9207 211.385 53.9407 211.171 53.9807C211.051 54.3541 210.938 54.9674 210.831 55.8207C210.738 56.6741 210.645 57.7341 210.551 59.0007L214.711 58.9607C214.805 58.9607 214.878 58.9874 214.931 59.0407C214.985 59.0941 214.998 59.1741 214.971 59.2807C214.958 59.3341 214.931 59.4341 214.891 59.5807C214.851 59.7274 214.818 59.8541 214.791 59.9607C214.765 60.1207 214.738 60.2874 214.711 60.4607C214.685 60.6341 214.671 60.8207 214.671 61.0207L214.191 61.1407L214.111 61.0407C214.165 60.8674 214.191 60.6941 214.191 60.5207C214.191 60.2807 214.111 60.1074 213.951 60.0007C213.791 59.8941 213.525 59.8341 213.151 59.8207C212.391 59.7807 211.751 59.7607 211.231 59.7607C211.098 59.7607 210.965 59.7607 210.831 59.7607C210.711 59.7607 210.598 59.7674 210.491 59.7807C210.465 60.2074 210.438 60.6874 210.411 61.2207C210.385 61.7407 210.358 62.2607 210.331 62.7807C210.318 63.2874 210.311 63.7341 210.311 64.1207C210.311 64.3341 210.311 64.5207 210.311 64.6807C210.325 64.8274 210.338 64.9407 210.351 65.0207C210.365 65.2474 210.465 65.3941 210.651 65.4607C210.731 65.4874 210.878 65.5207 211.091 65.5607C211.318 65.6007 211.578 65.6407 211.871 65.6807C212.151 65.7207 212.471 65.7407 212.831 65.7407C214.151 65.7407 215.038 65.5874 215.491 65.2807C215.598 65.2007 215.711 65.0941 215.831 64.9607C215.965 64.8141 216.105 64.6341 216.251 64.4207C216.398 64.1941 216.511 63.9874 216.591 63.8007C216.685 63.6141 216.725 63.4741 216.711 63.3807L217.171 63.5607C217.011 63.8541 216.878 64.1674 216.771 64.5007C216.665 64.8207 216.571 65.1607 216.491 65.5207C216.451 65.6941 216.398 65.8541 216.331 66.0007C216.278 66.1474 216.211 66.2541 216.131 66.3207C215.958 66.4941 215.691 66.5807 215.331 66.5807ZM231.053 66.6207C229.253 66.6207 227.733 66.2407 226.493 65.4807C225.787 65.0541 225.233 64.5341 224.833 63.9207C224.433 63.3074 224.147 62.6474 223.973 61.9407C223.813 61.2341 223.733 60.5274 223.733 59.8207C223.733 58.5541 223.96 57.5274 224.413 56.7407C224.88 55.9407 225.487 55.2474 226.233 54.6607C227.033 54.0207 227.927 53.5674 228.913 53.3007C229.913 53.0341 230.967 52.9007 232.073 52.9007C234.02 52.9007 235.813 53.2207 237.453 53.8607L237.313 54.1407C237.14 54.0474 236.92 54.4141 236.653 55.2407C236.453 55.9074 236.333 56.4674 236.293 56.9207C236.293 56.9741 236.287 57.0541 236.273 57.1607L235.833 57.0607C235.86 56.9541 235.873 56.8607 235.873 56.7807C235.887 56.7007 235.9 56.6207 235.913 56.5407C235.94 55.9941 235.847 55.5674 235.633 55.2607C235.433 54.9541 235 54.6607 234.333 54.3807C233.533 54.0341 232.533 53.8607 231.333 53.8607C229.68 53.8607 228.367 54.2674 227.393 55.0807C226.753 55.6141 226.307 56.2807 226.053 57.0807C225.813 57.8674 225.693 58.6941 225.693 59.5607C225.693 61.2141 226.12 62.5874 226.973 63.6807C227.96 64.9474 229.32 65.5807 231.053 65.5807C231.84 65.5807 232.68 65.4807 233.573 65.2807C234.467 65.0674 235.407 64.7407 236.393 64.3007L236.353 64.8207C235.793 65.1407 235.347 65.3941 235.013 65.5807C234.68 65.7674 234.453 65.8874 234.333 65.9407C233.24 66.3941 232.147 66.6207 231.053 66.6207ZM249.89 66.5207C249.77 66.4674 249.437 66.4141 248.89 66.3607C248.357 66.2941 247.663 66.2607 246.81 66.2607C246.21 66.2607 245.637 66.2941 245.09 66.3607C244.543 66.4141 243.983 66.4607 243.41 66.5007L243.67 65.9007C243.817 65.9407 243.977 65.9607 244.15 65.9607C244.497 65.9607 244.857 65.8807 245.23 65.7207C245.617 65.5474 245.857 65.3141 245.95 65.0207C246.137 64.3274 246.31 62.8807 246.47 60.6807C246.55 59.6407 246.61 58.7941 246.65 58.1407C246.69 57.4874 246.717 56.9274 246.73 56.4607C246.743 55.9941 246.75 55.5474 246.75 55.1207C246.75 54.4807 246.697 54.0341 246.59 53.7807C246.497 53.5141 246.177 53.3807 245.63 53.3807C245.39 53.3807 245.11 53.4207 244.79 53.5007L245.13 52.9007C245.317 52.9274 245.657 52.9674 246.15 53.0207C246.643 53.0607 247.203 53.0807 247.83 53.0807C248.39 53.0807 248.923 53.0541 249.43 53.0007C249.95 52.9474 250.437 52.9007 250.89 52.8607L250.41 53.4007C250.357 53.3874 250.303 53.3807 250.25 53.3807C250.197 53.3807 250.143 53.3807 250.09 53.3807C249.863 53.3807 249.643 53.4207 249.43 53.5007C249.217 53.5674 249.037 53.6741 248.89 53.8207C248.783 54.0074 248.683 54.3541 248.59 54.8607C248.51 55.3541 248.43 56.1007 248.35 57.1007C248.27 58.0874 248.17 59.4207 248.05 61.1007C248.037 61.4207 248.017 61.8074 247.99 62.2607C247.977 62.7141 247.97 63.1541 247.97 63.5807C247.97 63.8874 247.977 64.1741 247.99 64.4407C248.003 64.6941 248.017 64.9007 248.03 65.0607C248.043 65.2607 248.137 65.4274 248.31 65.5607C248.497 65.6807 248.717 65.7741 248.97 65.8407C249.237 65.8941 249.49 65.9207 249.73 65.9207C249.943 65.9207 250.117 65.9007 250.25 65.8607L249.89 66.5207ZM256.33 66.7407C254.997 66.7407 253.93 66.2141 253.13 65.1607C252.41 64.2141 251.817 63.4341 251.35 62.8207C250.897 62.2074 250.53 61.7141 250.25 61.3407C249.97 60.9674 249.743 60.6741 249.57 60.4607C249.41 60.2474 249.277 60.0674 249.17 59.9207C249.063 59.7741 248.943 59.6207 248.81 59.4607L248.83 59.3407C252.217 56.2874 253.91 54.5474 253.91 54.1207C253.91 53.6807 253.53 53.4607 252.77 53.4607C252.637 53.4607 252.51 53.4674 252.39 53.4807C252.27 53.4941 252.157 53.5074 252.05 53.5207L252.53 53.0007C252.57 53.0007 252.737 53.0207 253.03 53.0607C253.337 53.0874 253.677 53.1207 254.05 53.1607C254.437 53.1874 254.757 53.2007 255.01 53.2007C255.13 53.2007 255.33 53.1941 255.61 53.1807C255.89 53.1541 256.19 53.1341 256.51 53.1207C256.843 53.0941 257.143 53.0674 257.41 53.0407C257.69 53.0141 257.883 52.9941 257.99 52.9807L257.67 53.4407C257.257 53.4407 256.77 53.6007 256.21 53.9207C255.65 54.2407 255.05 54.6674 254.41 55.2007C253.77 55.7207 253.103 56.3074 252.41 56.9607C251.717 57.6007 251.023 58.2541 250.33 58.9207C250.997 59.7074 251.55 60.3807 251.99 60.9407C252.43 61.5007 252.83 62.0007 253.19 62.4407C253.55 62.8674 253.937 63.2807 254.35 63.6807C254.777 64.0674 255.303 64.4807 255.93 64.9207C256.357 65.2274 256.803 65.4807 257.27 65.6807C257.737 65.8674 258.157 65.9607 258.53 65.9607C258.597 65.9607 258.657 65.9607 258.71 65.9607C258.763 65.9474 258.817 65.9341 258.87 65.9207L258.59 66.4407C257.697 66.6407 256.943 66.7407 256.33 66.7407Z" fill="#F49B55" fill-opacity="0.82"/>
<path d="M140.066 176.959L143.959 179.295" stroke="#CFCFCF" stroke-width="1.1"/>
<path d="M150.967 183.967L152.525 185.525V184.746H150.967" stroke="#273032" stroke-width="0.5"/>
<path d="M153.303 185.525H152.525V184.746" stroke="#273032" stroke-width="0.5"/>
<path d="M152.525 184.746L153.303 185.525V186.303" stroke="#273032" stroke-width="0.5"/>
<rect x="160.256" y="183.681" width="24.0777" height="5.2782" transform="rotate(28 160.256 183.681)" fill="#273032"/>
<rect x="123.966" y="170.407" width="33.1061" height="7.36363" transform="rotate(27 123.966 170.407)" fill="#273032"/>
<path d="M98.343 161L127.841 176.03L125 181.5L96 166.5L96.5 163L98.343 161Z" fill="#273032"/>
<path d="M210.3 177.585L231 166.5L232 166L233.3 167.866L211.712 180.08L210.3 177.585Z" fill="#273032"/>
</svg>
