<svg width="940" height="790" viewBox="0 0 940 790" fill="none" xmlns="http://www.w3.org/2000/svg">
<rect width="940" height="790" fill="#273032"/>
<path d="M411.957 514.285H410.383L411.957 515.86M411.957 514.285H413.532V515.86H415.107L411.957 514.285Z" stroke="#273032" stroke-width="0.5"/>
<path d="M415.107 517.435V515.86V514.285" stroke="#273032" stroke-width="0.5"/>
<path fill-rule="evenodd" clip-rule="evenodd" d="M263.594 215.601C249.641 220.639 253.182 216.526 253.124 300.174V389.03L244.981 391.171L240.328 392.242C233.348 394.4 234.812 392.713 224.042 396.71C210.485 401.742 209.434 403.119 206.884 406.998C204.858 410.081 199.411 428.259 193.797 449.675C185.861 479.956 184.961 484.84 186.817 488.591C188.53 492.049 202.989 497.505 256.928 522.549C298.336 541.772 360.855 572.034 399.487 590.133C438.117 608.231 469.952 624 471.992 624C474.035 624 484.748 618.204 504.216 608.948C523.685 599.692 561.472 582.609 589.623 569.328C617.774 556.048 654.829 539.045 670.184 531.697C685.539 524.351 707.36 514.03 721.731 507.345C747.523 495.347 753.956 488.744 753.956 481.004C753.956 471.603 730.003 409.781 725.759 405.743C723.284 403.388 721.009 398.162 713.675 395.758L700.984 389.03V307.668C699.772 221.812 699.418 228.009 689.507 223.127C683.7 220.267 677.617 218.425 669.367 221.354C663.267 223.52 635.205 227.15 596.862 236.406C588.84 239.563 566.626 243.358 554.47 246.414C542.313 249.469 525.676 253.987 519.278 253.989C512.88 253.993 506.63 257.914 496.16 258.984L480.048 262.747L455.88 258.984C444.605 256.342 419.149 250.762 396.756 245.576C374.363 240.391 336.09 230.608 313.057 225.236C267.226 214.545 271.897 212.601 263.594 215.601ZM374.309 251.524C427.941 263.975 473.719 271.394 476.472 272.113C479.408 272.882 486.49 274.852 493.109 272.113C499.314 269.546 510.412 266.917 517.768 266.268C529.134 265.268 535.799 265.078 535.799 268.058C535.799 271.888 525.315 276.854 523.003 273.411C520.557 269.771 511.223 269.899 506.717 274.481C502.35 278.922 484.126 287.328 478.798 287.328C477.184 287.328 453.6 278.164 426.435 269.863C399.273 261.562 376.55 255.228 375.94 255.787C374.288 257.31 387.957 263.47 410.166 271.212L429.941 278.106L431.235 362.356C431.947 408.696 432.305 446.921 432.031 447.305C431.756 447.688 409.71 441.042 383.043 432.537C356.374 424.033 319.896 412.492 301.982 406.893L263.593 394.651L263.593 314.77C263.258 269.615 262.928 231.115 263.594 229.518C264.261 227.921 270.033 224.634 271.736 225.236C273.437 225.835 320.68 239.074 374.309 251.524ZM684.698 233.569C684.698 235.924 684.291 237.851 683.791 237.851C677.991 237.851 632.949 247.876 611.291 253.989C554.26 270.083 551.249 270.567 549.758 266.987C547.852 262.42 553.653 260.305 569.534 256.609C577.212 254.822 596.057 250.233 611.412 246.414C691.41 226.51 684.698 227.685 684.698 233.569ZM684.698 321.354C684.698 361.393 684.819 394.875 684.966 395.758C685.114 396.64 678.046 400.074 669.261 403.386C648.574 411.186 559.493 439.115 555.303 439.115C552.622 439.115 552.085 425.975 552.085 360.384V281.654L585.238 271.197C616.26 261.412 667.647 249.167 679.463 248.743L684.698 248.557V321.354ZM287.345 272.372L288.022 289.889L296.249 292.505C300.774 293.942 307.84 295.8 311.953 296.631L319.431 298.143L319.198 285.66C318.782 263.151 317.448 261.65 293.162 256.288L286.668 254.854L287.345 272.372ZM309.543 265.947C314.108 267.493 314.778 269.236 314.778 279.549C314.778 292.488 314.405 292.732 300.507 288.899L291.512 286.418V273.871V261.322L297.91 262.746C301.43 263.529 306.665 264.97 309.543 265.947ZM325.072 267.568C327.397 271.028 335.716 271.91 335.716 268.696C335.716 266.893 333.327 265.686 329.763 265.686C326.489 265.686 324.379 266.533 325.072 267.568ZM296.165 275.321C296.165 279.442 296.949 282.827 297.91 282.844C298.871 282.859 302.012 283.455 304.89 284.163C309.489 285.298 310.124 284.654 310.124 278.858C310.124 274.526 308.58 271.499 305.625 270.043C298.152 266.362 296.165 267.471 296.165 275.321ZM324.084 276.102C324.084 277.121 326.285 280.53 328.974 283.675C332.911 288.281 333.576 291.152 332.389 298.417C328.351 323.142 328.241 326.172 331.322 327.923C333.025 328.893 333.52 330.46 332.422 331.409C331.324 332.355 329.958 331.927 329.388 330.454C327.711 326.131 324.084 327.386 324.084 332.289C324.084 335.537 323.046 336.434 320.378 335.492C318.339 334.773 314.152 333.601 311.071 332.888C307.179 331.989 305.471 330.088 305.471 326.653C305.471 323.934 306.66 321.346 308.114 320.9C309.983 320.327 310.064 318.862 308.387 315.905C307.081 313.603 304.669 309.071 303.024 305.831C299.278 298.459 296.165 298.258 296.165 305.386C296.165 308.379 294.069 312.897 291.51 315.428C287.98 318.913 287.557 320.44 289.765 321.729C294.441 324.461 296.165 323.784 296.165 319.213C296.165 316.858 297.212 314.931 298.492 314.931C299.781 314.931 300.818 320.564 300.818 327.548C300.818 337.359 301.681 340.472 304.704 341.538C306.842 342.292 309.326 341.81 310.229 340.468C311.176 339.059 313.968 338.637 316.83 339.474C319.717 340.316 324.851 339.517 329.111 337.562C333.136 335.712 337.841 334.201 339.565 334.201C341.493 334.201 342.696 331.734 342.696 327.778C342.696 323.66 343.88 321.354 345.995 321.354C347.81 321.354 350.951 320.77 352.975 320.055C355.725 319.085 356.655 320.104 356.655 324.086C356.655 327.619 358.226 329.797 361.308 330.54C365.626 331.578 365.961 330.604 365.961 316.997C365.961 308.934 364.915 301.742 363.635 301.014C362.279 300.241 361.308 302.418 361.308 306.24C361.308 309.842 360.261 312.79 358.982 312.79C357.702 312.79 356.655 310.863 356.655 308.508C356.655 306.152 355.608 304.225 354.329 304.225C353.049 304.225 352.002 307.116 352.002 310.649C352.002 314.182 350.955 317.072 349.676 317.072C348.396 317.072 347.349 312.152 347.349 306.137C347.349 297.404 348.035 295.445 350.765 296.408C354.713 297.804 355.45 296.911 357.567 288.167C358.693 283.521 358.477 282.632 356.793 284.956C354.803 287.696 353.919 287.458 350.771 283.35C346.54 277.819 342.696 277.055 342.696 281.744C342.696 283.51 343.743 284.956 345.023 284.956C346.302 284.956 347.349 287.364 347.349 290.308C347.349 293.252 346.302 295.661 345.023 295.661C343.743 295.661 342.696 298.552 342.696 302.084C342.696 305.617 341.649 308.508 340.37 308.508C339.09 308.508 338.043 303.44 338.043 297.245C338.043 288.15 336.905 284.853 332.134 280.117C325.924 273.955 324.084 273.036 324.084 276.102ZM370.615 294.002V312.088L384.539 315.65C405.271 320.954 406.39 320.705 404.68 311.184C403.886 306.769 403.226 299.012 403.212 293.946C403.189 285.589 402.486 284.467 395.625 281.832C391.467 280.232 384.139 278.247 379.339 277.419L370.615 275.914V294.002ZM539.288 380.361L536.441 484.767L524.357 481.004C518.806 480.413 518.213 473.203 516.58 464.808C514.274 452.97 511.27 417.877 514.86 415.794C516.705 414.723 514.387 395.972 514.86 346.208C515.376 291.895 528.987 278.102 531.146 278.764C533.284 279.419 538.83 306.863 539.288 380.361ZM389.539 285.294L398.533 287.775V300.453V313.13L390.972 311.73C374.844 308.743 375.268 309.178 375.268 295.518C375.268 281.635 375.545 281.436 389.539 285.294ZM460.41 290.308C476.214 296.74 486.632 293.15 498.574 287.775C508.252 283.423 514.857 289.696 506.717 294.822C493.351 303.236 486.502 301.284 488.052 352.394C488.838 378.305 490.145 402.877 490.96 406.998L492.439 414.492L494.14 403.787C495.075 397.899 495.932 377.064 496.043 357.485C496.157 337.907 497.774 316.702 498.574 313.021C502.564 294.657 505.554 313.678 505.554 379.038V452.193L491.013 457.479L478.799 462.952L460.186 456.92L441.574 450.891L440.965 367.923C440.276 274.117 438.459 281.373 460.41 290.308ZM379.921 296.732C379.921 300.853 380.707 304.238 381.666 304.255C382.624 304.27 385.767 304.866 388.645 305.574C393.345 306.735 393.88 306.099 393.88 299.352C393.88 294.475 392.589 291.381 390.199 290.537C382.245 287.728 379.921 289.129 379.921 296.732ZM324.084 295.535C324.084 297.958 325.131 299.943 326.41 299.943C327.69 299.943 328.737 298.556 328.737 296.858C328.737 295.16 327.69 293.177 326.41 292.449C325.131 291.721 324.084 293.111 324.084 295.535ZM286.859 304.225C286.859 307.758 287.906 310.649 289.186 310.649C290.465 310.649 291.512 307.758 291.512 304.225C291.512 300.693 290.465 297.802 289.186 297.802C287.906 297.802 286.859 300.693 286.859 304.225ZM313.056 307.405C311.237 309.306 311.023 310.906 312.474 311.732C313.74 312.454 314.778 312.021 314.778 310.775C314.778 309.529 316.934 308.508 319.568 308.508C322.202 308.508 323.711 307.544 322.92 306.367C320.908 303.371 316.467 303.838 313.056 307.405ZM340.165 314.77C342.957 316.395 342.894 317.196 339.751 320.089C334.665 324.769 333.39 324.38 333.39 318.143C333.39 312.443 334.891 311.696 340.165 314.77ZM315.941 317.072C316.732 318.25 317.839 319.213 318.405 319.213C318.97 319.213 319.431 318.25 319.431 317.072C319.431 315.894 318.321 314.931 316.967 314.931C315.613 314.931 315.15 315.894 315.941 317.072ZM374.353 322.6C372.169 327.84 372.643 328.358 376.431 324.872C380.386 321.232 380.891 319.213 377.843 319.213C376.701 319.213 375.13 320.738 374.353 322.6ZM317.104 324.566C315.489 326.358 315.236 327.778 316.534 327.778C317.814 327.778 320.163 326.332 321.757 324.566C323.372 322.774 323.625 321.354 322.327 321.354C321.048 321.354 318.698 322.799 317.104 324.566ZM388.201 326.776C385.716 328.503 381.877 329.919 379.672 329.919C377.45 329.919 374.279 332.786 372.569 336.342C369.249 343.243 364.321 344.763 362.151 339.554C359.74 333.777 356.655 336.181 356.655 343.836C356.655 347.957 355.546 351.33 354.191 351.33C352.837 351.33 352.367 352.282 353.152 353.449C353.982 354.685 356.644 353.794 359.543 351.308C365.18 346.476 367.346 346.052 369.558 349.347C370.408 350.612 368.902 353.803 366.213 356.436C362.504 360.07 360.959 365.2 359.81 377.689C358.98 386.743 357.407 394.152 356.313 394.152C355.222 394.152 354.329 396.079 354.329 398.434C354.329 400.789 355.376 402.716 356.655 402.716C357.935 402.716 358.982 400.892 358.982 398.663C358.982 394.265 366.515 390.33 367.855 394.03C369.335 398.113 372.941 396.396 372.941 391.606V386.921L377.713 391.634C382.813 396.672 382.003 401.177 376.356 399.181C373.872 398.303 372.941 399.558 372.941 403.787C372.941 408.206 373.823 409.287 376.622 408.298C378.646 407.583 381.787 406.998 383.601 406.998C385.416 406.998 386.9 405.071 386.9 402.716C386.9 399.862 388.452 398.434 391.553 398.434C394.113 398.434 396.207 399.776 396.207 401.416C396.207 404.532 402.928 407.949 405.108 405.943C405.801 405.307 405.127 403.645 403.612 402.251C402.097 400.858 400.86 397.438 400.86 394.651C400.86 390.782 399.887 389.865 396.756 390.779C394.108 391.552 391.537 390.338 389.515 387.36C386.665 383.159 387.07 382.185 393.975 376.637C398.152 373.282 400.934 369.955 400.162 369.242C399.387 368.531 397.06 369.508 394.987 371.415C389.246 376.7 386.9 375.605 386.9 367.638C386.9 361.44 387.824 360.228 393.298 359.25C396.818 358.62 400.045 358.991 400.471 360.07C402.223 364.506 405.513 361.596 405.513 355.612C405.513 348.531 403.021 347.506 397.71 352.394C395.792 354.158 392.773 355.087 390.997 354.46C389.222 353.833 385.865 355.259 383.534 357.627C379.141 362.095 373.241 361.532 377.259 357.027C378.478 355.659 379.837 352.143 380.279 349.21C380.763 346.007 382.873 343.566 385.567 343.093C388.031 342.66 391.879 340.241 394.117 337.719C397.849 333.511 398.319 333.441 399.773 336.877C402.249 342.729 405.513 341.279 405.513 334.327C405.513 326.823 402.486 324.463 398.512 328.872C394.387 333.445 390.983 332.803 392.717 327.778C394.459 322.722 394.129 322.65 388.201 326.776ZM289.623 334.336C290.181 335.879 292.015 337.567 293.694 338.083C295.439 338.618 296.312 337.815 295.73 336.209C295.169 334.663 293.336 332.976 291.659 332.462C289.914 331.927 289.041 332.73 289.623 334.336ZM379.921 338.483C379.921 339.661 379.46 340.624 378.895 340.624C378.329 340.624 377.222 339.661 376.431 338.483C375.64 337.305 376.103 336.342 377.457 336.342C378.811 336.342 379.921 337.305 379.921 338.483ZM347.349 340.624C347.349 341.802 348.396 342.765 349.676 342.765C350.955 342.765 352.002 341.802 352.002 340.624C352.002 339.447 350.955 338.483 349.676 338.483C348.396 338.483 347.349 339.447 347.349 340.624ZM339.253 342.695C338.487 343.834 334.763 344.196 330.973 343.498C324.142 342.241 324.084 342.313 324.084 352.006C324.084 357.383 325.131 362.378 326.41 363.106C327.69 363.834 328.737 362.684 328.737 360.549C328.737 358.415 331.878 353.94 335.716 350.606C339.555 347.272 342.696 343.662 342.696 342.583C342.696 340.027 341.007 340.082 339.253 342.695ZM310.124 345.902C310.124 346.448 312.218 347.927 314.778 349.189C318.491 351.017 319.431 350.816 319.431 348.193C319.431 346.334 317.409 344.906 314.778 344.906C312.218 344.906 310.124 345.354 310.124 345.902ZM289.674 366.654L290.349 384.121L303.103 388.103C310.117 390.296 317.046 391.668 318.498 391.154C320.15 390.572 320.852 385.947 320.378 378.804C319.959 372.527 319.575 364.866 319.524 361.783C319.44 356.798 317.928 355.787 305.899 352.683C298.459 350.76 291.612 349.189 290.684 349.189C289.756 349.189 289.302 357.049 289.674 366.654ZM337.173 354.612C335.109 359.558 335.291 359.909 339.188 358.534C341.233 357.811 343.299 358.845 344.218 361.052C346.246 365.915 338.604 371.552 334.369 368.317C330.009 364.988 328.376 369.347 332.227 374.032C336.826 379.624 336.526 382.701 330.87 387.906C325.019 393.291 326.922 396.327 332.983 391.278C338.003 387.097 341.644 389.088 337.459 393.728C335.023 396.43 335.377 396.68 339.807 395.387C343.696 394.25 345.023 394.717 345.023 397.22C345.023 399.066 346.07 400.575 347.349 400.575C351.518 400.575 349.804 393.64 343.859 386.467C337.959 379.35 336.224 372.741 340.253 372.741C341.47 372.741 343.564 374.426 344.909 376.488C346.751 379.314 347.207 376.819 346.768 366.339C346.314 355.49 345.358 352.297 342.408 351.781C340.33 351.417 337.973 352.691 337.173 354.612ZM307.144 357.864C313.521 359.909 314.305 361.215 315.694 372.083C316.534 378.665 316.778 384.459 316.239 384.958C314.987 386.108 300.153 383.59 296.91 381.675C295.567 380.883 293.727 374.693 292.822 367.923C290.989 354.199 292.473 353.156 307.144 357.864ZM297.398 368.831C299.115 376.121 301.97 379.074 307.356 379.132C309.461 379.153 310.183 376.678 309.682 371.135C309.05 364.091 308.149 363.02 302.34 362.408C295.963 361.738 295.779 361.973 297.398 368.831ZM352.002 365.12C352.002 366.818 353.049 368.801 354.329 369.529C355.608 370.257 356.655 368.867 356.655 366.444C356.655 364.02 355.608 362.035 354.329 362.035C353.049 362.035 352.002 363.423 352.002 365.12ZM376.28 366.264C381.128 367.962 382.247 369.769 382.247 375.899C382.247 383.495 378.036 385.825 371.573 381.808C368.321 379.785 365.913 371.068 367.532 367.182C369.023 363.605 368.76 363.632 376.28 366.264ZM400.86 379.038C400.86 381.324 401.907 383.789 403.186 384.517C404.505 385.268 405.513 383.468 405.513 380.361C405.513 377.348 404.466 374.882 403.186 374.882C401.907 374.882 400.86 376.751 400.86 379.038ZM363.635 401.646C363.635 404.59 364.682 406.998 365.961 406.998C367.241 406.998 368.288 404.59 368.288 401.646C368.288 398.702 367.241 396.293 365.961 396.293C364.682 396.293 363.635 398.702 363.635 401.646ZM308.005 419.98C330.284 427.12 371.022 440.044 398.533 448.701C426.044 457.357 454.738 466.45 462.297 468.906C479.232 474.411 482.517 474.445 493.624 469.229L502.446 465.088L511.124 476.948C515.898 483.47 522.3 493.522 521.84 493.944C519.176 496.396 470.63 514.285 467.166 514.285C462.981 514.285 409.037 495.242 389.515 485.562C382.536 483.421 368.482 475.691 359.206 471.22C349.93 466.747 339.807 462.952 339.807 462.952C339.552 462.952 304.719 448.398 244.981 421.447C222.879 414.339 237.323 397.67 237.323 396.71C237.323 392.794 269.519 407.647 308.005 419.98ZM705.619 409.506C705.998 410.609 683.658 420.697 666.086 428.321C648.513 435.944 617.649 449.266 596.862 458.426C576.074 467.583 556.654 476.948 555.303 476.948C553.8 476.948 552.115 469.071 552.546 462.329L553.248 451.285L620.55 430.189C657.566 418.586 688.386 408.602 689.037 408C690.691 406.478 704.793 407.091 705.619 409.506ZM388.064 411.281C388.855 412.458 389.962 413.422 390.527 413.422C391.093 413.422 391.553 412.458 391.553 411.281C391.553 410.103 390.444 409.139 389.09 409.139C387.736 409.139 387.273 410.103 388.064 411.281ZM403.186 415.563C403.186 416.74 404.233 417.704 405.513 417.704C406.792 417.704 407.839 416.74 407.839 415.563C407.839 414.385 406.792 413.422 405.513 413.422C404.233 413.422 403.186 414.385 403.186 415.563ZM226.388 415.782C221.716 429.748 213.903 435.935 210.427 433.957C206.793 428.655 207.766 418.11 212.422 408.799C214.665 405.123 226.388 411.132 226.388 415.782ZM728.902 426.213C731.238 434.783 732.162 437.665 723.623 441.487C719.161 443.485 691.038 456.638 666.086 467.868C627.719 485.138 617.187 491.049 625.058 484.767C630.176 480.684 638.503 473.495 637.142 473.478C634.455 473.444 617.398 485.211 572.693 507.345C542.802 522.147 484.529 545.016 474.127 547.359C467.264 548.902 462.576 544.603 432.268 529.444C411.499 519.053 411.324 518.899 410.615 510.088C410.219 505.204 410.689 501.207 411.657 501.207C412.623 501.207 422.729 506.08 434.113 512.036C457.104 524.067 469.09 522.93 483.451 518.567C488.253 517.109 510.383 507.919 532.309 498.226C625.589 456.991 714.387 414.554 718.433 414.492C720.008 414.466 728.123 423.361 728.902 426.213ZM295.002 451.122C321.194 463.014 351.67 478.278 364.058 483.755C376.447 489.232 394.956 498.642 395.459 499.819C397.425 504.425 389.841 533.687 387.403 533.687C386.016 533.687 368.202 523.999 352.135 515.216C317.427 496.25 290.561 484.431 256.928 473.34L232.185 463.969L226.43 461.137C222.304 459.107 220.094 454.524 221.075 450.031L221.716 447.096C222.46 434.821 228.249 422.648 233.349 422.648C234.842 422.648 268.81 439.23 295.002 451.122ZM214.736 441.485C214.736 443.932 208.427 443.986 206.793 441.554C206.114 440.541 206.154 439.162 206.884 438.49C208.699 436.82 214.736 439.121 214.736 441.485ZM211.149 449.675C212.877 452.25 209.937 475.514 207.88 475.514C207.021 475.514 204.404 474.225 202.064 472.649C198.199 470.049 198.071 468.763 200.686 458.732C203.371 448.437 207.764 444.632 211.149 449.675ZM735.882 457.479C738.501 462.928 740.451 467.829 740.451 469.229C740.451 470.63 732.187 474.835 724.831 477.586C695.233 488.649 648.101 510.424 595.133 537.507C519.886 575.98 477.58 595.43 469.311 595.351C465.572 595.315 450.997 589.694 436.921 582.86C413.283 571.381 405.021 566.579 404.349 560.318C403.946 556.591 403.142 552.502 403.912 552.502C405.62 536.822 430.218 565.018 441.998 571.891C448.023 575.409 455.592 578.286 458.814 578.286C464.297 578.286 464.423 578.055 460.773 574.696C458.625 572.722 446.623 565.697 434.099 559.085C411.399 547.101 403.292 546.133 405.62 536.822C405.224 531.865 407.115 527.131 407.839 527.131C408.562 527.131 424.753 534.918 439.697 542.104C461.122 552.405 468.401 554.936 474.127 554.081C478.122 553.484 498.54 545.68 519.499 536.736C557.292 520.612 568.558 514.201 568.558 518.2C568.558 521.202 557.067 521.344 601.146 498.226C634.715 480.62 669.922 471.525 718.433 450.765C728.2 446.585 730.582 446.454 735.882 457.479ZM255.856 477.924C280.024 486.81 331.801 510.75 359.035 525.63C371.089 532.216 393.132 542.104 393.981 542.104C396.41 542.104 391.654 557.771 387.403 552.502C386.4 553.425 370.342 545.194 354.75 538.678C317.695 523.196 304.983 518.222 311.288 522.849C313.847 524.729 318.616 528.51 327.574 532.668C351.351 543.703 386.249 561.091 387.403 563.791C387.954 565.076 387.403 567.554 385.47 569.862C383.771 572.389 380.358 570.645 317.104 539.785C299.83 531.358 273.919 519.186 259.522 512.737C236.859 502.581 221.716 497.047 221.716 492.544L219.389 485.38L252.543 497.224C276.311 505.414 276.389 504.348 276.389 502.509C276.389 501.706 268.886 498.333 255.451 492.544C233.921 483.269 221.716 478.096 221.716 473.34C221.716 466.35 227.2 467.389 255.856 477.924ZM206.442 481.883C209.725 483.033 212.41 485.442 212.41 487.236C212.41 491.364 209.336 491.362 200.661 487.234C188.723 481.554 193.325 477.295 206.442 481.883ZM740.451 484.849C738.578 486.448 717.677 496.916 694.004 508.108C670.332 519.299 610.781 547.527 561.67 570.838L472.38 613.216L440.108 598.49C422.362 590.388 403.186 581.093 403.186 579.588C403.186 575.289 411.983 577.76 423.171 584.842C442.379 597.004 462.962 604.633 473.173 603.372C482.775 602.185 519.553 585.682 567.207 561.175C624.934 531.486 672.935 508.499 704.473 495.441C737.12 481.922 747.429 478.888 740.451 484.849Z" fill="#EBEBEB"/>
<path d="M613.715 618.949C613.715 617.087 640.096 604.207 653.286 598L660.269 602.655L620.698 623.605H616.043L613.715 621.277L623.026 616.622L632.337 614.294V611.966H634.664L636.992 609.638H641.647C640.871 609.638 639.785 609.173 641.647 607.311C643.509 605.449 645.527 604.983 646.303 604.983" stroke="#273032"/>
<path d="M386.998 541.477H389.326L393.981 543.805V546.132H391.654V543.805H389.326V546.132L386.998 541.477Z" fill="#CFCFCF"/>
<path d="M384.671 541.477H386.998M386.998 541.477H389.326M386.998 541.477L389.326 546.132V543.805M389.326 541.477L393.981 543.805V546.132H391.654V543.805H389.326M389.326 541.477V543.805" stroke="#273032" stroke-width="0.2"/>
<path d="M436.043 634.328L450.009 641.311L433.715 632" stroke="#273032"/>
<path d="M592.715 632.605L597.37 627.949L602.026 625.622L627.63 613.983L634.613 609.328L639.269 607L622.975 611.655L615.992 616.311" stroke="#273032"/>
<path d="M458.34 565.808C458.34 567.36 458.805 570.463 460.667 570.463C462.995 570.463 462.995 572.791 465.323 572.791C467.185 572.791 467.65 572.791 467.65 572.791L472.306 575.119H474.633L476.961 572.791" stroke="#273032"/>
<path d="M353.594 519.254L365.232 526.237" stroke="#CFCFCF" stroke-width="1.1"/>
<path d="M386.181 540.203L390.837 544.858V542.531H386.181" stroke="#273032" stroke-width="0.5"/>
<path d="M393.164 544.858H390.836V542.53" stroke="#273032" stroke-width="0.5"/>
<path d="M390.836 542.53L393.164 544.858V547.186" stroke="#273032" stroke-width="0.5"/>
<path d="M149 431.5L206 457L201.108 467.176L147.252 444.812C146.814 444.63 146.564 444.166 146.654 443.7L149 431.5Z" fill="#273032"/>
<path d="M234.605 474.144L321 506.5L318.5 515.5L315 523.5L233.852 487.862C233.453 487.687 233.214 487.274 233.259 486.841L234.605 474.144Z" fill="#273032"/>
<path d="M314 499L321.5 500.5V503.5L321 504.5L314 505V499Z" fill="#273032"/>
<path d="M332.5 498.5L393.5 531L388 542L331.5 508.5L332.5 498.5Z" fill="#273032"/>
</svg>
